<mxfile host="app.diagrams.net" modified="2021-09-17T06:22:30.814Z" agent="5.0 (Windows NT 6.1; Win64; x64) AppleWebKit/537.36 (KHTML, like Gecko) Chrome/93.0.4577.82 Safari/537.36" etag="CwNJphu0v-RWnyeyEZvb" version="15.2.9" type="github">
  <diagram id="JgSvBfDvB_D5Z-AoVeIU" name="Page-1">
    <mxGraphModel dx="868" dy="482" grid="1" gridSize="10" guides="1" tooltips="1" connect="1" arrows="1" fold="1" page="1" pageScale="1" pageWidth="827" pageHeight="1169" math="0" shadow="0">
      <root>
        <mxCell id="0" />
        <mxCell id="1" parent="0" />
        <mxCell id="6YGEB5Kaw4sNpGn_EE-i-1" value="" style="ellipse;whiteSpace=wrap;html=1;aspect=fixed;" vertex="1" parent="1">
          <mxGeometry x="70" y="40" width="80" height="80" as="geometry" />
        </mxCell>
        <mxCell id="6YGEB5Kaw4sNpGn_EE-i-2" value="" style="rounded=0;whiteSpace=wrap;html=1;" vertex="1" parent="1">
          <mxGeometry x="210" y="65" width="440" height="30" as="geometry" />
        </mxCell>
        <mxCell id="6YGEB5Kaw4sNpGn_EE-i-3" value="" style="rounded=0;whiteSpace=wrap;html=1;" vertex="1" parent="1">
          <mxGeometry x="690" y="70" width="50" height="20" as="geometry" />
        </mxCell>
        <mxCell id="6YGEB5Kaw4sNpGn_EE-i-4" value="" style="rounded=0;whiteSpace=wrap;html=1;" vertex="1" parent="1">
          <mxGeometry x="750" y="70" width="50" height="20" as="geometry" />
        </mxCell>
        <mxCell id="6YGEB5Kaw4sNpGn_EE-i-5" value="" style="rounded=0;whiteSpace=wrap;html=1;" vertex="1" parent="1">
          <mxGeometry y="130" width="830" height="180" as="geometry" />
        </mxCell>
        <mxCell id="6YGEB5Kaw4sNpGn_EE-i-6" value="Titulo del curso" style="text;html=1;strokeColor=none;fillColor=none;align=center;verticalAlign=middle;whiteSpace=wrap;rounded=0;fontSize=21;fontStyle=1" vertex="1" parent="1">
          <mxGeometry x="40" y="180" width="200" height="60" as="geometry" />
        </mxCell>
        <mxCell id="6YGEB5Kaw4sNpGn_EE-i-8" value="" style="whiteSpace=wrap;html=1;aspect=fixed;" vertex="1" parent="1">
          <mxGeometry x="590" y="150" width="150" height="150" as="geometry" />
        </mxCell>
        <mxCell id="6YGEB5Kaw4sNpGn_EE-i-9" value="" style="sketch=0;html=1;aspect=fixed;strokeColor=none;shadow=0;align=center;verticalAlign=top;fillColor=#3B8DF1;shape=mxgraph.gcp2.play_start" vertex="1" parent="1">
          <mxGeometry x="615" y="170" width="100" height="100" as="geometry" />
        </mxCell>
        <mxCell id="6YGEB5Kaw4sNpGn_EE-i-10" value="Video" style="text;html=1;strokeColor=none;fillColor=none;align=center;verticalAlign=middle;whiteSpace=wrap;rounded=0;" vertex="1" parent="1">
          <mxGeometry x="645" y="270" width="40" height="20" as="geometry" />
        </mxCell>
        <mxCell id="6YGEB5Kaw4sNpGn_EE-i-11" value="Imagen de fondo" style="text;html=1;strokeColor=none;fillColor=none;align=center;verticalAlign=middle;whiteSpace=wrap;rounded=0;" vertex="1" parent="1">
          <mxGeometry x="300" y="130" width="200" height="20" as="geometry" />
        </mxCell>
        <mxCell id="6YGEB5Kaw4sNpGn_EE-i-14" value="" style="ellipse;whiteSpace=wrap;html=1;fontSize=21;" vertex="1" parent="1">
          <mxGeometry x="20" y="340" width="80" height="80" as="geometry" />
        </mxCell>
        <mxCell id="6YGEB5Kaw4sNpGn_EE-i-16" value="&lt;h1 style=&quot;font-size: 13px&quot;&gt;&lt;font style=&quot;font-size: 13px&quot;&gt;Horario&lt;/font&gt;&lt;/h1&gt;&lt;p style=&quot;font-size: 13px&quot;&gt;&lt;font style=&quot;font-size: 13px&quot;&gt;Lorem ipsum dolor sit amet, consectetur adipisicing elit, sed do eiusmod tempor incididunt ut labore et dolore magna aliqua.&lt;/font&gt;&lt;/p&gt;" style="text;html=1;strokeColor=none;fillColor=none;spacing=5;spacingTop=-20;whiteSpace=wrap;overflow=hidden;rounded=0;fontSize=21;" vertex="1" parent="1">
          <mxGeometry x="110" y="325" width="150" height="110" as="geometry" />
        </mxCell>
        <mxCell id="6YGEB5Kaw4sNpGn_EE-i-17" value="" style="ellipse;whiteSpace=wrap;html=1;fontSize=21;" vertex="1" parent="1">
          <mxGeometry x="290" y="340" width="80" height="80" as="geometry" />
        </mxCell>
        <mxCell id="6YGEB5Kaw4sNpGn_EE-i-18" value="&lt;h1 style=&quot;font-size: 13px&quot;&gt;&lt;span&gt;Duracion&lt;/span&gt;&lt;/h1&gt;&lt;h1 style=&quot;font-size: 13px&quot;&gt;&lt;span style=&quot;font-weight: normal&quot;&gt;Lorem ipsum dolor sit amet, consectetur adipisicing elit, sed do eiusmod tempor incididunt ut labore et dolore magna aliqua.&lt;/span&gt;&lt;br&gt;&lt;/h1&gt;" style="text;html=1;strokeColor=none;fillColor=none;spacing=5;spacingTop=-20;whiteSpace=wrap;overflow=hidden;rounded=0;fontSize=21;" vertex="1" parent="1">
          <mxGeometry x="390" y="325" width="150" height="110" as="geometry" />
        </mxCell>
        <mxCell id="6YGEB5Kaw4sNpGn_EE-i-19" value="&lt;h1 style=&quot;font-size: 13px&quot;&gt;Proximos inicios&lt;/h1&gt;&lt;h1 style=&quot;font-size: 13px&quot;&gt;&lt;span style=&quot;font-weight: normal&quot;&gt;Lorem ipsum dolor sit amet, consectetur adipisicing elit, sed do e&lt;/span&gt;&lt;br&gt;&lt;/h1&gt;&lt;div&gt;&lt;span style=&quot;font-weight: normal&quot;&gt;&lt;br&gt;&lt;/span&gt;&lt;/div&gt;" style="text;html=1;strokeColor=none;fillColor=none;spacing=5;spacingTop=-20;whiteSpace=wrap;overflow=hidden;rounded=0;fontSize=21;" vertex="1" parent="1">
          <mxGeometry x="660" y="325" width="150" height="110" as="geometry" />
        </mxCell>
        <mxCell id="6YGEB5Kaw4sNpGn_EE-i-20" value="" style="ellipse;whiteSpace=wrap;html=1;fontSize=21;" vertex="1" parent="1">
          <mxGeometry x="565" y="340" width="80" height="80" as="geometry" />
        </mxCell>
        <mxCell id="6YGEB5Kaw4sNpGn_EE-i-21" value="boton" style="rounded=1;whiteSpace=wrap;html=1;fontSize=21;" vertex="1" parent="1">
          <mxGeometry x="685" y="410" width="90" height="30" as="geometry" />
        </mxCell>
        <mxCell id="6YGEB5Kaw4sNpGn_EE-i-22" value="&lt;h1&gt;Descripcion&lt;/h1&gt;&lt;p&gt;Lorem ipsum dolor sit amet, consectetur adipisicing elit, sed do eiusmod tempor incididunt ut labore et dolore magna aliqua.&lt;/p&gt;" style="text;html=1;strokeColor=none;fillColor=none;spacing=5;spacingTop=-20;whiteSpace=wrap;overflow=hidden;rounded=0;fontSize=21;" vertex="1" parent="1">
          <mxGeometry x="30" y="470" width="780" height="280" as="geometry" />
        </mxCell>
        <mxCell id="6YGEB5Kaw4sNpGn_EE-i-23" value="Agregar al carrito" style="rounded=1;whiteSpace=wrap;html=1;fontSize=15;fontStyle=1" vertex="1" parent="1">
          <mxGeometry x="370" y="690" width="170" height="40" as="geometry" />
        </mxCell>
        <mxCell id="6YGEB5Kaw4sNpGn_EE-i-24" value="Comprar Ahora" style="rounded=1;whiteSpace=wrap;html=1;fontSize=15;fontStyle=1" vertex="1" parent="1">
          <mxGeometry x="565" y="690" width="170" height="40" as="geometry" />
        </mxCell>
      </root>
    </mxGraphModel>
  </diagram>
</mxfile>
